<svg xmlns="http://www.w3.org/2000/svg" xmlns:xlink="http://www.w3.org/1999/xlink" zoomAndPan="magnify" preserveAspectRatio="xMidYMid meet" version="1.2" viewBox="11.54 121 350.37 115.64"><defs/><g id="f62c099c05"><g style="fill:currentColor;fill-opacity:1;"><g transform="translate(11.516342, 220.215624)"><path style="stroke:none" d="M 36.078125 -71.984375 C 43.441406 -71.984375 49.300781 -71 53.65625 -69.03125 C 58.019531 -67.070312 61.273438 -64.4375 63.421875 -61.125 C 65.566406 -57.8125 67.066406 -54.21875 67.921875 -50.34375 C 68.785156 -46.476562 69.398438 -42.582031 69.765625 -38.65625 C 70.140625 -34.726562 70.722656 -31.109375 71.515625 -27.796875 C 72.316406 -24.484375 73.757812 -21.84375 75.84375 -19.875 C 76.820312 -18.894531 77.894531 -18.097656 79.0625 -17.484375 C 80.226562 -16.867188 80.691406 -15.890625 80.453125 -14.546875 C 80.203125 -12.828125 78.726562 -11.320312 76.03125 -10.03125 C 73.332031 -8.738281 70.203125 -8.09375 66.640625 -8.09375 C 63.453125 -8.09375 60.503906 -8.707031 57.796875 -9.9375 C 55.097656 -11.164062 52.675781 -12.363281 50.53125 -13.53125 C 48.382812 -14.695312 46.390625 -15.28125 44.546875 -15.28125 C 42.828125 -15.28125 41.046875 -14.695312 39.203125 -13.53125 C 37.367188 -12.363281 35.128906 -11.164062 32.484375 -9.9375 C 29.847656 -8.707031 26.503906 -8.09375 22.453125 -8.09375 C 17.304688 -8.09375 12.859375 -9.101562 9.109375 -11.125 C 5.367188 -13.15625 2.726562 -15.859375 1.1875 -19.234375 C -0.34375 -22.609375 -0.367188 -26.320312 1.109375 -30.375 C 2.453125 -34.050781 4.875 -36.6875 8.375 -38.28125 C 11.875 -39.882812 15.832031 -41.082031 20.25 -41.875 C 24.664062 -42.675781 28.835938 -43.691406 32.765625 -44.921875 C 36.941406 -46.265625 39.640625 -48.285156 40.859375 -50.984375 C 42.085938 -53.691406 42.332031 -56.394531 41.59375 -59.09375 C 40.863281 -61.789062 39.578125 -63.570312 37.734375 -64.4375 C 35.898438 -65.289062 34.582031 -64.976562 33.78125 -63.5 C 32.976562 -62.03125 32.394531 -60.191406 32.03125 -57.984375 C 31.664062 -55.773438 31.175781 -53.9375 30.5625 -52.46875 C 29.695312 -50.132812 28.003906 -48.503906 25.484375 -47.578125 C 22.972656 -46.660156 20.273438 -46.382812 17.390625 -46.75 C 14.515625 -47.125 12.03125 -48.046875 9.9375 -49.515625 C 7.851562 -50.992188 6.75 -52.957031 6.625 -55.40625 C 6.5 -57.863281 7.972656 -60.6875 11.046875 -63.875 C 13.378906 -66.207031 16.628906 -68.140625 20.796875 -69.671875 C 24.972656 -71.210938 30.066406 -71.984375 36.078125 -71.984375 Z M 27.609375 -27.0625 C 27.984375 -24.488281 29.394531 -22.769531 31.84375 -21.90625 C 34.300781 -21.050781 36.632812 -20.804688 38.84375 -21.171875 C 39.820312 -21.410156 40.585938 -21.929688 41.140625 -22.734375 C 41.691406 -23.535156 42.03125 -24.179688 42.15625 -24.671875 C 42.769531 -27.984375 43.046875 -30.925781 42.984375 -33.5 C 42.921875 -36.082031 42.707031 -38.171875 42.34375 -39.765625 C 42.21875 -40.617188 41.753906 -41.078125 40.953125 -41.140625 C 40.160156 -41.203125 39.148438 -40.617188 37.921875 -39.390625 C 36.566406 -38.046875 35.03125 -36.820312 33.3125 -35.71875 C 31.601562 -34.613281 30.164062 -33.382812 29 -32.03125 C 27.832031 -30.675781 27.367188 -29.019531 27.609375 -27.0625 Z M 27.609375 -27.0625 "/></g></g><g style="fill:currentColor;fill-opacity:1;"><g transform="translate(89.749441, 220.215624)"><path style="stroke:none" d="M 52.828125 -62.046875 C 53.816406 -62.046875 54.675781 -61.675781 55.40625 -60.9375 C 56.144531 -60.195312 56.515625 -59.335938 56.515625 -58.359375 L 56.515625 -52.28125 L 39.21875 -52.28125 C 39.09375 -47.5 39.117188 -42.894531 39.296875 -38.46875 C 39.484375 -34.050781 39.972656 -30.25 40.765625 -27.0625 C 41.566406 -23.875 42.828125 -21.726562 44.546875 -20.625 C 45.773438 -19.882812 47.003906 -19.632812 48.234375 -19.875 C 49.460938 -20.125 50.320312 -19.820312 50.8125 -18.96875 C 51.664062 -17.25 51.078125 -15.53125 49.046875 -13.8125 C 47.023438 -12.09375 44.144531 -10.707031 40.40625 -9.65625 C 36.664062 -8.613281 32.523438 -8.09375 27.984375 -8.09375 C 22.210938 -8.09375 17.394531 -9.441406 13.53125 -12.140625 C 9.664062 -14.847656 7.734375 -19.023438 7.734375 -24.671875 L 7.734375 -52.28125 L 3.5 -52.28125 C 2.632812 -52.28125 1.832031 -52.644531 1.09375 -53.375 C 0.363281 -54.113281 0 -54.914062 0 -55.78125 L 0 -58.359375 C 0 -59.335938 0.363281 -60.101562 1.09375 -60.65625 C 1.832031 -61.207031 2.632812 -61.671875 3.5 -62.046875 C 6.195312 -63.023438 8.957031 -65.046875 11.78125 -68.109375 C 14.601562 -71.179688 17.457031 -74.492188 20.34375 -78.046875 C 23.226562 -81.609375 26.082031 -84.675781 28.90625 -87.25 C 31.726562 -89.832031 34.425781 -91.125 37 -91.125 C 38.226562 -91.125 39.546875 -90.816406 40.953125 -90.203125 C 42.367188 -89.585938 42.832031 -87.378906 42.34375 -83.578125 C 42.34375 -83.453125 42.066406 -81.300781 41.515625 -77.125 C 40.960938 -72.957031 40.441406 -67.929688 39.953125 -62.046875 Z M 52.828125 -62.046875 "/></g></g><g style="fill:currentColor;fill-opacity:1;"><g transform="translate(147.181726, 220.215624)"><path style="stroke:none" d="M 56.890625 -29.265625 C 57.867188 -31.847656 59.644531 -33.597656 62.21875 -34.515625 C 64.800781 -35.429688 67.503906 -35.675781 70.328125 -35.25 C 73.148438 -34.820312 75.570312 -33.867188 77.59375 -32.390625 C 79.625 -30.921875 80.640625 -29.019531 80.640625 -26.6875 C 80.640625 -23.5 79.472656 -20.492188 77.140625 -17.671875 C 74.804688 -14.847656 71.890625 -12.546875 68.390625 -10.765625 C 64.890625 -8.984375 61.363281 -8.09375 57.8125 -8.09375 L 13.8125 -8.09375 C 10 -8.09375 7.265625 -8.707031 5.609375 -9.9375 C 3.953125 -11.164062 3.125 -12.578125 3.125 -14.171875 C 3.125 -15.765625 3.617188 -17.113281 4.609375 -18.21875 C 5.335938 -19.082031 6.929688 -20.894531 9.390625 -23.65625 C 11.847656 -26.414062 14.671875 -29.570312 17.859375 -33.125 C 21.046875 -36.6875 24.144531 -40.15625 27.15625 -43.53125 C 30.164062 -46.90625 32.679688 -49.726562 34.703125 -52 C 36.722656 -54.269531 37.734375 -55.40625 37.734375 -55.40625 C 39.085938 -56.882812 40.253906 -58.328125 41.234375 -59.734375 C 42.210938 -61.148438 42.609375 -62.347656 42.421875 -63.328125 C 42.242188 -64.304688 41.050781 -64.796875 38.84375 -64.796875 C 35.65625 -64.796875 32.769531 -63.566406 30.1875 -61.109375 C 27.613281 -58.660156 25.46875 -55.226562 23.75 -50.8125 C 22.769531 -48.226562 20.988281 -46.476562 18.40625 -45.5625 C 15.832031 -44.644531 13.132812 -44.398438 10.3125 -44.828125 C 7.488281 -45.253906 5.0625 -46.203125 3.03125 -47.671875 C 1.007812 -49.148438 0 -51.054688 0 -53.390625 C 0 -56.578125 1.164062 -59.582031 3.5 -62.40625 C 5.832031 -65.226562 8.742188 -67.53125 12.234375 -69.3125 C 15.734375 -71.09375 19.265625 -71.984375 22.828125 -71.984375 L 66.828125 -71.984375 C 70.753906 -71.984375 73.515625 -71.367188 75.109375 -70.140625 C 76.703125 -68.910156 77.53125 -67.5 77.59375 -65.90625 C 77.65625 -64.3125 77.132812 -62.898438 76.03125 -61.671875 C 75.289062 -60.804688 73.660156 -58.992188 71.140625 -56.234375 C 68.628906 -53.472656 65.78125 -50.34375 62.59375 -46.84375 C 59.40625 -43.351562 56.304688 -39.890625 53.296875 -36.453125 C 50.285156 -33.015625 47.765625 -30.191406 45.734375 -27.984375 C 43.710938 -25.773438 42.703125 -24.671875 42.703125 -24.671875 C 41.484375 -23.316406 40.378906 -21.898438 39.390625 -20.421875 C 38.410156 -18.953125 38.039062 -17.726562 38.28125 -16.75 C 38.53125 -15.769531 39.703125 -15.28125 41.796875 -15.28125 C 44.984375 -15.28125 47.863281 -16.503906 50.4375 -18.953125 C 53.019531 -21.410156 55.171875 -24.847656 56.890625 -29.265625 Z M 56.890625 -29.265625 "/></g></g><g style="fill:currentColor;fill-opacity:1;"><g transform="translate(227.991921, 220.215624)"><path style="stroke:none" d="M 19.140625 -71.984375 C 15.335938 -71.984375 12.113281 -73.300781 9.46875 -75.9375 C 6.832031 -78.570312 5.515625 -81.796875 5.515625 -85.609375 C 5.515625 -89.410156 6.832031 -92.628906 9.46875 -95.265625 C 12.113281 -97.898438 15.335938 -99.21875 19.140625 -99.21875 C 22.953125 -99.21875 26.175781 -97.898438 28.8125 -95.265625 C 31.445312 -92.628906 32.765625 -89.410156 32.765625 -85.609375 C 32.765625 -81.796875 31.445312 -78.570312 28.8125 -75.9375 C 26.175781 -73.300781 22.953125 -71.984375 19.140625 -71.984375 Z M 37.921875 -66.09375 C 37.679688 -64.988281 37.34375 -62.960938 36.90625 -60.015625 C 36.476562 -57.066406 36.078125 -53.660156 35.703125 -49.796875 C 35.335938 -45.929688 35.1875 -41.972656 35.25 -37.921875 C 35.3125 -33.867188 35.679688 -30.15625 36.359375 -26.78125 C 37.035156 -23.40625 38.234375 -20.859375 39.953125 -19.140625 C 40.804688 -18.285156 41.660156 -17.582031 42.515625 -17.03125 C 43.378906 -16.476562 43.691406 -15.648438 43.453125 -14.546875 C 43.203125 -12.703125 41.753906 -11.316406 39.109375 -10.390625 C 36.472656 -9.472656 33.46875 -8.859375 30.09375 -8.546875 C 26.71875 -8.242188 23.804688 -8.09375 21.359375 -8.09375 C 19.023438 -8.09375 16.203125 -8.242188 12.890625 -8.546875 C 9.578125 -8.859375 6.660156 -9.472656 4.140625 -10.390625 C 1.628906 -11.316406 0.25 -12.703125 0 -14.546875 C -0.125 -15.773438 0.179688 -16.691406 0.921875 -17.296875 C 1.660156 -17.910156 2.457031 -18.648438 3.3125 -19.515625 C 4.289062 -20.367188 5.054688 -21.992188 5.609375 -24.390625 C 6.160156 -26.785156 6.5 -29.453125 6.625 -32.390625 C 6.75 -35.335938 6.59375 -38.097656 6.15625 -40.671875 C 5.726562 -43.253906 5.023438 -45.160156 4.046875 -46.390625 C 3.191406 -47.617188 2.269531 -48.691406 1.28125 -49.609375 C 0.300781 -50.535156 -0.125 -51.671875 0 -53.015625 C 0.25 -54.859375 1.320312 -56.546875 3.21875 -58.078125 C 5.125 -59.609375 7.332031 -60.988281 9.84375 -62.21875 C 12.363281 -63.445312 14.664062 -64.613281 16.75 -65.71875 C 18.34375 -66.457031 20.457031 -67.441406 23.09375 -68.671875 C 25.738281 -69.898438 28.316406 -70.847656 30.828125 -71.515625 C 33.347656 -72.191406 35.34375 -72.191406 36.8125 -71.515625 C 38.289062 -70.847656 38.660156 -69.039062 37.921875 -66.09375 Z M 37.921875 -66.09375 "/></g></g><g style="fill:currentColor;fill-opacity:1;"><g transform="translate(271.434262, 220.215624)"><path style="stroke:none" d="M 53.578125 -71.984375 C 59.097656 -71.984375 63.515625 -70.476562 66.828125 -67.46875 C 70.140625 -64.457031 72.742188 -60.648438 74.640625 -56.046875 C 76.546875 -51.453125 78.082031 -46.640625 79.25 -41.609375 C 80.414062 -36.578125 81.550781 -32.035156 82.65625 -27.984375 C 83.757812 -23.929688 85.171875 -20.984375 86.890625 -19.140625 C 87.753906 -18.285156 88.613281 -17.582031 89.46875 -17.03125 C 90.332031 -16.476562 90.640625 -15.648438 90.390625 -14.546875 C 90.140625 -12.703125 88.972656 -11.316406 86.890625 -10.390625 C 84.804688 -9.472656 82.382812 -8.859375 79.625 -8.546875 C 76.863281 -8.242188 74.253906 -8.09375 71.796875 -8.09375 C 69.460938 -8.09375 66.726562 -8.550781 63.59375 -9.46875 C 60.46875 -10.394531 57.738281 -12.144531 55.40625 -14.71875 C 53.082031 -17.300781 51.921875 -21.109375 51.921875 -26.140625 L 51.921875 -51.546875 C 51.921875 -56.085938 51.363281 -59.0625 50.25 -60.46875 C 49.144531 -61.882812 47.765625 -62.160156 46.109375 -61.296875 C 44.453125 -60.441406 42.796875 -58.785156 41.140625 -56.328125 C 39.484375 -53.878906 38.101562 -51.054688 37 -47.859375 C 35.894531 -44.671875 35.34375 -41.539062 35.34375 -38.46875 C 35.34375 -34.425781 35.679688 -30.65625 36.359375 -27.15625 C 37.035156 -23.65625 38.234375 -20.984375 39.953125 -19.140625 C 40.804688 -18.285156 41.660156 -17.582031 42.515625 -17.03125 C 43.378906 -16.476562 43.691406 -15.648438 43.453125 -14.546875 C 43.203125 -12.703125 41.753906 -11.316406 39.109375 -10.390625 C 36.472656 -9.472656 33.46875 -8.859375 30.09375 -8.546875 C 26.71875 -8.242188 23.804688 -8.09375 21.359375 -8.09375 C 19.023438 -8.09375 16.203125 -8.242188 12.890625 -8.546875 C 9.578125 -8.859375 6.660156 -9.472656 4.140625 -10.390625 C 1.628906 -11.316406 0.25 -12.703125 0 -14.546875 C -0.125 -15.773438 0.179688 -16.691406 0.921875 -17.296875 C 1.660156 -17.910156 2.457031 -18.648438 3.3125 -19.515625 C 4.289062 -20.367188 5.054688 -21.992188 5.609375 -24.390625 C 6.160156 -26.785156 6.5 -29.453125 6.625 -32.390625 C 6.75 -35.335938 6.59375 -38.097656 6.15625 -40.671875 C 5.726562 -43.253906 5.023438 -45.160156 4.046875 -46.390625 C 3.191406 -47.617188 2.269531 -48.691406 1.28125 -49.609375 C 0.300781 -50.535156 -0.125 -51.671875 0 -53.015625 C 0.25 -54.859375 1.320312 -56.546875 3.21875 -58.078125 C 5.125 -59.609375 7.332031 -60.988281 9.84375 -62.21875 C 12.363281 -63.445312 14.664062 -64.613281 16.75 -65.71875 C 18.34375 -66.457031 20.457031 -67.441406 23.09375 -68.671875 C 25.738281 -69.898438 28.316406 -70.847656 30.828125 -71.515625 C 33.347656 -72.191406 35.34375 -72.191406 36.8125 -71.515625 C 38.289062 -70.847656 38.660156 -69.039062 37.921875 -66.09375 L 37 -60.5625 C 39.207031 -64.488281 41.90625 -67.375 45.09375 -69.21875 C 48.289062 -71.0625 51.117188 -71.984375 53.578125 -71.984375 Z M 53.578125 -71.984375 "/></g></g><g style="fill:currentColor;fill-opacity:1;"><g transform="translate(150.773434, 236.547878)"><path style="stroke:none" d="M 2.21875 -8.234375 L 2.21875 -5.15625 L 5.578125 -5.15625 L 5.578125 -4.15625 L 2.21875 -4.15625 L 2.21875 -0.984375 L 5.96875 -0.984375 L 5.96875 0 L 1.015625 0 L 1.015625 -9.234375 L 5.96875 -9.234375 L 5.96875 -8.234375 Z M 2.21875 -8.234375 "/></g></g><g style="fill:currentColor;fill-opacity:1;"><g transform="translate(168.087053, 236.547878)"><path style="stroke:none" d="M 3.9375 0.09375 C 3.332031 0.09375 2.789062 -0.015625 2.3125 -0.234375 C 1.832031 -0.453125 1.453125 -0.75 1.171875 -1.125 C 0.898438 -1.507812 0.757812 -1.953125 0.75 -2.453125 L 2.03125 -2.453125 C 2.082031 -2.023438 2.265625 -1.660156 2.578125 -1.359375 C 2.890625 -1.066406 3.34375 -0.921875 3.9375 -0.921875 C 4.507812 -0.921875 4.960938 -1.0625 5.296875 -1.34375 C 5.628906 -1.632812 5.796875 -2.003906 5.796875 -2.453125 C 5.796875 -2.804688 5.695312 -3.09375 5.5 -3.3125 C 5.300781 -3.53125 5.054688 -3.695312 4.765625 -3.8125 C 4.472656 -3.925781 4.082031 -4.050781 3.59375 -4.1875 C 2.988281 -4.34375 2.503906 -4.5 2.140625 -4.65625 C 1.773438 -4.820312 1.460938 -5.070312 1.203125 -5.40625 C 0.941406 -5.75 0.8125 -6.207031 0.8125 -6.78125 C 0.8125 -7.28125 0.9375 -7.722656 1.1875 -8.109375 C 1.445312 -8.503906 1.804688 -8.804688 2.265625 -9.015625 C 2.734375 -9.222656 3.265625 -9.328125 3.859375 -9.328125 C 4.722656 -9.328125 5.429688 -9.109375 5.984375 -8.671875 C 6.535156 -8.242188 6.84375 -7.675781 6.90625 -6.96875 L 5.59375 -6.96875 C 5.550781 -7.320312 5.363281 -7.628906 5.03125 -7.890625 C 4.707031 -8.160156 4.273438 -8.296875 3.734375 -8.296875 C 3.234375 -8.296875 2.820312 -8.164062 2.5 -7.90625 C 2.1875 -7.644531 2.03125 -7.285156 2.03125 -6.828125 C 2.03125 -6.484375 2.125 -6.207031 2.3125 -6 C 2.507812 -5.789062 2.742188 -5.628906 3.015625 -5.515625 C 3.296875 -5.410156 3.6875 -5.285156 4.1875 -5.140625 C 4.800781 -4.972656 5.289062 -4.804688 5.65625 -4.640625 C 6.03125 -4.484375 6.347656 -4.234375 6.609375 -3.890625 C 6.867188 -3.554688 7 -3.097656 7 -2.515625 C 7 -2.066406 6.878906 -1.640625 6.640625 -1.234375 C 6.410156 -0.835938 6.0625 -0.515625 5.59375 -0.265625 C 5.125 -0.0234375 4.570312 0.09375 3.9375 0.09375 Z M 3.9375 0.09375 "/></g></g><g style="fill:currentColor;fill-opacity:1;"><g transform="translate(186.379316, 236.547878)"><path style="stroke:none" d="M 0.5625 -4.609375 C 0.5625 -5.515625 0.765625 -6.320312 1.171875 -7.03125 C 1.578125 -7.75 2.128906 -8.3125 2.828125 -8.71875 C 3.535156 -9.125 4.316406 -9.328125 5.171875 -9.328125 C 6.171875 -9.328125 7.046875 -9.082031 7.796875 -8.59375 C 8.546875 -8.113281 9.09375 -7.429688 9.4375 -6.546875 L 8 -6.546875 C 7.738281 -7.097656 7.367188 -7.523438 6.890625 -7.828125 C 6.410156 -8.128906 5.835938 -8.28125 5.171875 -8.28125 C 4.523438 -8.28125 3.945312 -8.128906 3.4375 -7.828125 C 2.925781 -7.523438 2.523438 -7.097656 2.234375 -6.546875 C 1.941406 -5.992188 1.796875 -5.347656 1.796875 -4.609375 C 1.796875 -3.878906 1.941406 -3.238281 2.234375 -2.6875 C 2.523438 -2.132812 2.925781 -1.707031 3.4375 -1.40625 C 3.945312 -1.113281 4.523438 -0.96875 5.171875 -0.96875 C 5.835938 -0.96875 6.410156 -1.113281 6.890625 -1.40625 C 7.367188 -1.695312 7.738281 -2.125 8 -2.6875 L 9.4375 -2.6875 C 9.09375 -1.800781 8.546875 -1.117188 7.796875 -0.640625 C 7.046875 -0.160156 6.171875 0.078125 5.171875 0.078125 C 4.316406 0.078125 3.535156 -0.117188 2.828125 -0.515625 C 2.128906 -0.921875 1.578125 -1.476562 1.171875 -2.1875 C 0.765625 -2.90625 0.5625 -3.710938 0.5625 -4.609375 Z M 0.5625 -4.609375 "/></g></g><g style="fill:currentColor;fill-opacity:1;"><g transform="translate(207.118173, 236.547878)"><path style="stroke:none" d="M 6.46875 -2.046875 L 2.453125 -2.046875 L 1.703125 0 L 0.4375 0 L 3.765625 -9.15625 L 5.15625 -9.15625 L 8.46875 0 L 7.203125 0 Z M 6.125 -3.03125 L 4.453125 -7.6875 L 2.796875 -3.03125 Z M 6.125 -3.03125 "/></g></g><g style="fill:currentColor;fill-opacity:1;"><g transform="translate(226.560994, 236.547878)"><path style="stroke:none" d="M 8.265625 0 L 7.0625 0 L 2.21875 -7.34375 L 2.21875 0 L 1.015625 0 L 1.015625 -9.234375 L 2.21875 -9.234375 L 7.0625 -1.90625 L 7.0625 -9.234375 L 8.265625 -9.234375 Z M 8.265625 0 "/></g></g><g style="fill:currentColor;fill-opacity:1;"><g transform="translate(246.387338, 236.547878)"><path style="stroke:none" d="M 3.890625 -9.21875 C 4.890625 -9.21875 5.753906 -9.03125 6.484375 -8.65625 C 7.222656 -8.28125 7.789062 -7.742188 8.1875 -7.046875 C 8.582031 -6.347656 8.78125 -5.53125 8.78125 -4.59375 C 8.78125 -3.644531 8.582031 -2.820312 8.1875 -2.125 C 7.789062 -1.4375 7.222656 -0.910156 6.484375 -0.546875 C 5.753906 -0.179688 4.890625 0 3.890625 0 L 1.015625 0 L 1.015625 -9.21875 Z M 3.890625 -0.984375 C 5.078125 -0.984375 5.984375 -1.296875 6.609375 -1.921875 C 7.234375 -2.554688 7.546875 -3.445312 7.546875 -4.59375 C 7.546875 -5.738281 7.226562 -6.628906 6.59375 -7.265625 C 5.96875 -7.910156 5.066406 -8.234375 3.890625 -8.234375 L 2.21875 -8.234375 L 2.21875 -0.984375 Z M 3.890625 -0.984375 "/></g></g><g style="fill:currentColor;fill-opacity:1;"><g transform="translate(266.266578, 236.547878)"><path style="stroke:none" d="M 2.21875 -9.21875 L 2.21875 0 L 1.015625 0 L 1.015625 -9.21875 Z M 2.21875 -9.21875 "/></g></g><g style="fill:currentColor;fill-opacity:1;"><g transform="translate(280.049155, 236.547878)"><path style="stroke:none" d="M 6.46875 -2.046875 L 2.453125 -2.046875 L 1.703125 0 L 0.4375 0 L 3.765625 -9.15625 L 5.15625 -9.15625 L 8.46875 0 L 7.203125 0 Z M 6.125 -3.03125 L 4.453125 -7.6875 L 2.796875 -3.03125 Z M 6.125 -3.03125 "/></g></g><g style="fill:currentColor;fill-opacity:1;"><g transform="translate(299.491976, 236.547878)"><path style="stroke:none" d=""/></g></g><g style="fill:currentColor;fill-opacity:1;"><g transform="translate(313.552283, 236.547878)"><path style="stroke:none" d="M 3.890625 -9.21875 C 4.890625 -9.21875 5.753906 -9.03125 6.484375 -8.65625 C 7.222656 -8.28125 7.789062 -7.742188 8.1875 -7.046875 C 8.582031 -6.347656 8.78125 -5.53125 8.78125 -4.59375 C 8.78125 -3.644531 8.582031 -2.820312 8.1875 -2.125 C 7.789062 -1.4375 7.222656 -0.910156 6.484375 -0.546875 C 5.753906 -0.179688 4.890625 0 3.890625 0 L 1.015625 0 L 1.015625 -9.21875 Z M 3.890625 -0.984375 C 5.078125 -0.984375 5.984375 -1.296875 6.609375 -1.921875 C 7.234375 -2.554688 7.546875 -3.445312 7.546875 -4.59375 C 7.546875 -5.738281 7.226562 -6.628906 6.59375 -7.265625 C 5.96875 -7.910156 5.066406 -8.234375 3.890625 -8.234375 L 2.21875 -8.234375 L 2.21875 -0.984375 Z M 3.890625 -0.984375 "/></g></g><g style="fill:currentColor;fill-opacity:1;"><g transform="translate(333.431523, 236.547878)"><path style="stroke:none" d="M 2.21875 -8.234375 L 2.21875 -5.15625 L 5.578125 -5.15625 L 5.578125 -4.15625 L 2.21875 -4.15625 L 2.21875 -0.984375 L 5.96875 -0.984375 L 5.96875 0 L 1.015625 0 L 1.015625 -9.234375 L 5.96875 -9.234375 L 5.96875 -8.234375 Z M 2.21875 -8.234375 "/></g></g><g style="fill:currentColor;fill-opacity:1;"><g transform="translate(350.745142, 236.547878)"><path style="stroke:none" d="M 8.625 -9.21875 L 5.15625 0 L 3.765625 0 L 0.296875 -9.21875 L 1.578125 -9.21875 L 4.46875 -1.265625 L 7.359375 -9.21875 Z M 8.625 -9.21875 "/></g></g></g></svg>